<?xml version="1.0" encoding="utf-8"?>
<!-- Generator: Adobe Illustrator 23.1.0, SVG Export Plug-In . SVG Version: 6.00 Build 0)  -->
<svg version="1.1" id="Capa_1" xmlns="http://www.w3.org/2000/svg" xmlns:xlink="http://www.w3.org/1999/xlink" x="0px" y="0px"
	 viewBox="0 0 238.9 220" style="enable-background:new 0 0 238.9 220;" xml:space="preserve">
<style type="text/css">
	.st0{fill:#059AAF;}
</style>
<g>
	<path class="st0" d="M224.6,40.9"/>
	<path class="st0" d="M69.9,125c11.6,19.4,23,38.8,35.5,57.6c0.4,1,0.7,2.1,2,2.6c0-0.9-0.1-1.7-0.1-2.6c0.1-14,0.1-28,0.2-42
		c0-35.2,0.1-70.5,0-105.7c0-2.7,0.5-3.6,3.4-3.5c5.7,0.3,11.5,0.3,17.2-0.1c3.5-0.2,4.6,0.6,4.6,4.4c-0.2,41.2-0.1,82.4-0.2,123.7
		c0,3.5,0.9,4.3,4.3,4.3c22.5-0.2,45-0.1,67.5-0.2c2.8,0,3.7,0.6,3.6,3.5c-0.2,6.2-0.2,12.5-0.1,18.7c0,2.1-0.5,2.8-2.7,2.8
		c-41,0-82,0-122.9,0.1c-2.4,0-3.2-1.3-4.2-2.9c-13.1-21.2-25.8-42.7-39.5-63.5c-4.7-7.2-4-14.2-4.2-21.7C34.2,98.4,35.9,99,37,99
		c5.5-0.1,11-0.1,16.5-0.2c12-0.3,20.2-9,20.1-21.4C73.5,65.7,65,57,53.3,56.8c-7.9-0.1-15.7,0.1-23.6-0.1c-3.1-0.1-3.9,0.7-3.9,3.8
		c0.1,40.6,0.1,81.2,0.1,121.8c0,6.1,0,6.1-5.8,6.4c-2.5,0-5,0-7.5,0c-4-0.1-7.9-0.2-11.9-0.3c0-18.7-0.1-37.4-0.1-56.1
		c0-32.1,0-64.1,0-96.2c0-1.1-0.1-2.2-0.2-3.3c0.7-1.9,2.4-0.9,3.5-0.9c17.6-0.1,35.2-0.1,52.9-0.1c1.3,0.1,2.5,0.2,3.8,0.3
		c1.5,0.3,3,0.6,4.5,0.9c0.6,0.7,1.4,0.7,2.3,0.7c6,2.4,11.6,5.6,16.6,9.7c1.5,1.5,2.9,3,4.4,4.5c10.5,14.1,13,29.6,7.8,46.3
		c-0.5,1.2-1,2.5-1.5,3.7c-1.9,3.3-3.9,6.5-5.8,9.8c-1.3,1.4-2.5,2.8-3.8,4.1c-2.7,2.1-5.4,4.2-8.1,6.3c-2,0.9-3.9,2.2-5.9,2.8
		C67.8,121.7,67.9,123,69.9,125z"/>
	<path class="st0" d="M221.3,115c-10.8,8.3-23.3,9.9-36.5,9.4c-8.6-0.3-8.6,0-8.6-8.8c0-4.6,0.1-9.2-0.1-13.9
		c-0.1-2.2,0.6-3.1,2.9-3c5,0.1,10,0.1,15,0c11.6-0.3,19.6-8.9,19.7-21c0.1-11.7-8.1-20.6-19.5-20.9c-8.1-0.2-16.2,0.1-24.4-0.1
		c-3.1-0.1-2.3,1.8-2.3,3.4c0,30.2-0.1,60.4,0.1,90.7c0,3.8-1.1,4.5-4.5,4.4c-5.9-0.3-11.7-0.3-17.6,0c-3,0.1-3.3-1-3.3-3.6
		c0.1-28.8,0.1-57.7,0.1-86.5c0-10,0.1-20-0.1-30c0-2.6,0.7-3.3,3.3-3.3c17.4,0.1,34.7,0,52.1,0c1,0.1,2,0.2,3,0.2
		c1.5,0.3,3,0.6,4.5,0.9c0.4,0.5,0.9,0.6,1.5,0.5c4.6,1.6,9,3.8,13.2,6.3c11.9,9.3,18.4,21.5,18.9,36.6
		C239.1,91.8,233.3,104.8,221.3,115z"/>
	<path class="st0" d="M7.9,199.1c-1.4,8.4,3.8,13.7,12.6,13.7c65.8-0.3,131.6-0.2,197.3-0.2c9.8,0,13.4-3.6,13.4-13.2
		c0-25,0-49.9,0-74.9c0-1.4-0.1-2.7-0.1-4.1c-0.4-5.6,5.1-7.4,7-11.8c1,1.5,0.6,2.6,0.6,3.7c0,29.7,0,59.4,0,89.1
		c0,10.9-7.7,18.6-18.6,18.6c-67,0-134.1,0-201.1,0c-11.7,0-18.8-7.4-18.7-19c0-1.4,0-2.7,0-4.1c1-0.1,2-0.2,3-0.3
		C5,197.3,8,195.3,7.9,199.1z"/>
	<path class="st0" d="M211.1,7.5c-2.4-0.1-4.7-0.2-7.1-0.2c-55.6,0-111.3,0-166.9,0.1c-1.2,0-2.5,0.1-3.7,0.2
		c-1.7-0.4-3.5-0.4-5.2,0c-3.5-0.1-7-0.4-10.4-0.2c-5,0.2-7.9,2.7-9.2,7.2c-1.1,1.6-0.5,3.4-0.7,5.1c-0.2,1.1,0.8,3-0.7,3.3
		c-2,0.4-4.2,0.1-6.3-0.1c-0.6,0-0.4-0.8-0.5-1.2c-2-10.9,5.4-20.6,16.4-21.6C18.3,0,19.8,0,21.3,0C87.2,0,153.1,0,219,0
		c12.8,0,19.8,6.9,19.9,19.9c0,9,0,18.1,0,28c-3.7-5.5-9.2-9-7.7-16c0-1.2,0-2.5,0-3.7c0-1.5,0-3,0-4.5c0.2-4.4,1-8.9-2.3-12.7
		c-1-1.1-2-2.2-3.6-2.5C220.7,6.4,215.9,7.6,211.1,7.5z"/>
	<path class="st0" d="M107.3,182.6c0,0.8,0.1,1.6,0.1,2.6c-1.3-0.5-1.7-1.5-2-2.6C106,182.6,106.7,182.6,107.3,182.6z"/>
</g>
</svg>
